<mxfile host="app.diagrams.net" agent="Mozilla/5.0 (Windows NT 10.0; Win64; x64) AppleWebKit/537.36 (KHTML, like Gecko) Chrome/136.0.0.0 Safari/537.36" version="27.0.5">
  <diagram name="Pagina-1" id="8OBj0ZMfduM5tY-Sq_fC">
    <mxGraphModel dx="668" dy="398" grid="1" gridSize="10" guides="1" tooltips="1" connect="1" arrows="1" fold="1" page="1" pageScale="1" pageWidth="1100" pageHeight="850" math="0" shadow="0">
      <root>
        <mxCell id="0" />
        <mxCell id="1" parent="0" />
        <mxCell id="ArUpYVqbR6Th3pE3Q0OD-5" style="rounded=0;orthogonalLoop=1;jettySize=auto;html=1;exitX=0.5;exitY=0.5;exitDx=0;exitDy=0;exitPerimeter=0;entryX=0;entryY=0.5;entryDx=0;entryDy=0;endArrow=none;startFill=0;dashed=1;endFill=0;" edge="1" parent="1" source="ArUpYVqbR6Th3pE3Q0OD-1" target="ArUpYVqbR6Th3pE3Q0OD-4">
          <mxGeometry relative="1" as="geometry" />
        </mxCell>
        <mxCell id="ArUpYVqbR6Th3pE3Q0OD-1" value="Home&lt;div&gt;Owner&lt;/div&gt;" style="shape=umlActor;verticalLabelPosition=bottom;verticalAlign=top;html=1;outlineConnect=0;" vertex="1" parent="1">
          <mxGeometry x="80" y="190" width="40" height="80" as="geometry" />
        </mxCell>
        <mxCell id="ArUpYVqbR6Th3pE3Q0OD-14" style="rounded=0;orthogonalLoop=1;jettySize=auto;html=1;exitX=0.5;exitY=0.5;exitDx=0;exitDy=0;exitPerimeter=0;entryX=1;entryY=0.5;entryDx=0;entryDy=0;endArrow=none;startFill=0;dashed=1;" edge="1" parent="1" source="ArUpYVqbR6Th3pE3Q0OD-2" target="ArUpYVqbR6Th3pE3Q0OD-13">
          <mxGeometry relative="1" as="geometry" />
        </mxCell>
        <mxCell id="ArUpYVqbR6Th3pE3Q0OD-2" value="Controller" style="shape=umlActor;verticalLabelPosition=bottom;verticalAlign=top;html=1;outlineConnect=0;" vertex="1" parent="1">
          <mxGeometry x="720" y="160" width="40" height="80" as="geometry" />
        </mxCell>
        <mxCell id="ArUpYVqbR6Th3pE3Q0OD-21" style="rounded=0;orthogonalLoop=1;jettySize=auto;html=1;exitX=0.5;exitY=0.5;exitDx=0;exitDy=0;exitPerimeter=0;entryX=1;entryY=1;entryDx=0;entryDy=0;dashed=1;endArrow=none;startFill=0;" edge="1" parent="1" source="ArUpYVqbR6Th3pE3Q0OD-3" target="ArUpYVqbR6Th3pE3Q0OD-15">
          <mxGeometry relative="1" as="geometry" />
        </mxCell>
        <mxCell id="ArUpYVqbR6Th3pE3Q0OD-3" value="Devices" style="shape=umlActor;verticalLabelPosition=bottom;verticalAlign=top;html=1;outlineConnect=0;" vertex="1" parent="1">
          <mxGeometry x="600" y="360" width="40" height="80" as="geometry" />
        </mxCell>
        <mxCell id="ArUpYVqbR6Th3pE3Q0OD-4" value="&lt;font style=&quot;font-size: 10px;&quot;&gt;Add/Remove&lt;/font&gt;&lt;div&gt;&lt;font style=&quot;font-size: 10px;&quot;&gt;Device&lt;/font&gt;&lt;/div&gt;" style="ellipse;whiteSpace=wrap;html=1;" vertex="1" parent="1">
          <mxGeometry x="240" y="110" width="80" height="50" as="geometry" />
        </mxCell>
        <mxCell id="ArUpYVqbR6Th3pE3Q0OD-7" style="rounded=0;orthogonalLoop=1;jettySize=auto;html=1;entryX=0;entryY=0.5;entryDx=0;entryDy=0;endArrow=none;startFill=0;dashed=1;exitX=0.5;exitY=0.5;exitDx=0;exitDy=0;exitPerimeter=0;" edge="1" parent="1" target="ArUpYVqbR6Th3pE3Q0OD-8" source="ArUpYVqbR6Th3pE3Q0OD-1">
          <mxGeometry relative="1" as="geometry">
            <mxPoint x="90" y="220" as="sourcePoint" />
          </mxGeometry>
        </mxCell>
        <mxCell id="ArUpYVqbR6Th3pE3Q0OD-12" style="edgeStyle=orthogonalEdgeStyle;rounded=0;orthogonalLoop=1;jettySize=auto;html=1;exitX=0.5;exitY=1;exitDx=0;exitDy=0;entryX=0.5;entryY=0;entryDx=0;entryDy=0;dashed=1;endArrow=open;endFill=0;" edge="1" parent="1" source="ArUpYVqbR6Th3pE3Q0OD-8" target="ArUpYVqbR6Th3pE3Q0OD-11">
          <mxGeometry relative="1" as="geometry" />
        </mxCell>
        <mxCell id="ArUpYVqbR6Th3pE3Q0OD-27" style="rounded=0;orthogonalLoop=1;jettySize=auto;html=1;exitX=1;exitY=0.5;exitDx=0;exitDy=0;entryX=0;entryY=1;entryDx=0;entryDy=0;dashed=1;endArrow=open;endFill=0;" edge="1" parent="1" source="ArUpYVqbR6Th3pE3Q0OD-8" target="ArUpYVqbR6Th3pE3Q0OD-13">
          <mxGeometry relative="1" as="geometry" />
        </mxCell>
        <mxCell id="ArUpYVqbR6Th3pE3Q0OD-8" value="&lt;font style=&quot;font-size: 9px;&quot;&gt;&lt;font style=&quot;&quot;&gt;Personalize/&lt;/font&gt;&lt;span style=&quot;background-color: transparent; color: light-dark(rgb(0, 0, 0), rgb(255, 255, 255));&quot;&gt;Create&lt;/span&gt;&lt;/font&gt;&lt;div&gt;&lt;font style=&quot;font-size: 9px;&quot;&gt;Scenarios&lt;/font&gt;&lt;/div&gt;" style="ellipse;whiteSpace=wrap;html=1;" vertex="1" parent="1">
          <mxGeometry x="240" y="230" width="80" height="50" as="geometry" />
        </mxCell>
        <mxCell id="ArUpYVqbR6Th3pE3Q0OD-10" style="rounded=0;orthogonalLoop=1;jettySize=auto;html=1;entryX=0;entryY=0.5;entryDx=0;entryDy=0;endArrow=none;startFill=0;dashed=1;exitX=0.5;exitY=0.5;exitDx=0;exitDy=0;exitPerimeter=0;" edge="1" parent="1" target="ArUpYVqbR6Th3pE3Q0OD-11" source="ArUpYVqbR6Th3pE3Q0OD-1">
          <mxGeometry relative="1" as="geometry">
            <mxPoint x="100" y="310" as="sourcePoint" />
          </mxGeometry>
        </mxCell>
        <mxCell id="ArUpYVqbR6Th3pE3Q0OD-16" style="rounded=0;orthogonalLoop=1;jettySize=auto;html=1;exitX=1;exitY=0;exitDx=0;exitDy=0;entryX=0;entryY=1;entryDx=0;entryDy=0;dashed=1;endArrow=open;endFill=0;" edge="1" parent="1" source="ArUpYVqbR6Th3pE3Q0OD-11" target="ArUpYVqbR6Th3pE3Q0OD-15">
          <mxGeometry relative="1" as="geometry" />
        </mxCell>
        <mxCell id="ArUpYVqbR6Th3pE3Q0OD-11" value="&lt;font size=&quot;1&quot;&gt;Give commands&lt;/font&gt;" style="ellipse;whiteSpace=wrap;html=1;" vertex="1" parent="1">
          <mxGeometry x="240" y="350" width="80" height="50" as="geometry" />
        </mxCell>
        <mxCell id="ArUpYVqbR6Th3pE3Q0OD-25" style="rounded=0;orthogonalLoop=1;jettySize=auto;html=1;exitX=0;exitY=0;exitDx=0;exitDy=0;entryX=1;entryY=0.5;entryDx=0;entryDy=0;dashed=1;endArrow=none;endFill=0;startArrow=open;startFill=0;" edge="1" parent="1" source="ArUpYVqbR6Th3pE3Q0OD-13" target="ArUpYVqbR6Th3pE3Q0OD-4">
          <mxGeometry relative="1" as="geometry" />
        </mxCell>
        <mxCell id="ArUpYVqbR6Th3pE3Q0OD-26" value="&lt;i&gt;&amp;lt;&amp;lt;extends&amp;gt;&amp;gt;&lt;/i&gt;" style="edgeLabel;html=1;align=center;verticalAlign=middle;resizable=0;points=[];" vertex="1" connectable="0" parent="ArUpYVqbR6Th3pE3Q0OD-25">
          <mxGeometry x="0.0865" y="1" relative="1" as="geometry">
            <mxPoint as="offset" />
          </mxGeometry>
        </mxCell>
        <mxCell id="ArUpYVqbR6Th3pE3Q0OD-13" value="&lt;font size=&quot;1&quot;&gt;Request to Controller&lt;/font&gt;" style="ellipse;whiteSpace=wrap;html=1;" vertex="1" parent="1">
          <mxGeometry x="520" y="150" width="80" height="50" as="geometry" />
        </mxCell>
        <mxCell id="ArUpYVqbR6Th3pE3Q0OD-15" value="&lt;font size=&quot;1&quot;&gt;Get Info&lt;/font&gt;&lt;div&gt;&lt;font size=&quot;1&quot;&gt;From Devices&lt;/font&gt;&lt;/div&gt;" style="ellipse;whiteSpace=wrap;html=1;" vertex="1" parent="1">
          <mxGeometry x="400" y="310" width="80" height="50" as="geometry" />
        </mxCell>
        <mxCell id="ArUpYVqbR6Th3pE3Q0OD-18" style="rounded=0;orthogonalLoop=1;jettySize=auto;html=1;exitX=0.5;exitY=0;exitDx=0;exitDy=0;entryX=0.5;entryY=1;entryDx=0;entryDy=0;dashed=1;endArrow=open;endFill=0;" edge="1" parent="1" source="ArUpYVqbR6Th3pE3Q0OD-17" target="ArUpYVqbR6Th3pE3Q0OD-15">
          <mxGeometry relative="1" as="geometry" />
        </mxCell>
        <mxCell id="ArUpYVqbR6Th3pE3Q0OD-17" value="&lt;font size=&quot;1&quot;&gt;Causes&lt;/font&gt;&lt;div&gt;&lt;font size=&quot;1&quot;&gt;Events&lt;/font&gt;&lt;/div&gt;" style="ellipse;whiteSpace=wrap;html=1;" vertex="1" parent="1">
          <mxGeometry x="400" y="430" width="80" height="50" as="geometry" />
        </mxCell>
      </root>
    </mxGraphModel>
  </diagram>
</mxfile>
